<svg id="bar" xmlns="http://www.w3.org/2000/svg" viewBox="0 0 66 493"><title>batactive-bar</title><g id="bottom-square"><rect x="0.02" y="427.27" width="65.73" height="65.73"/></g><g id="bottom-lower-dot"><path d="M32.88,396.23h0a7.3,7.3,0,0,1-7.3-7.31h0a7.3,7.3,0,0,1,7.3-7.3h0a7.3,7.3,0,0,1,7.31,7.3h0A7.31,7.31,0,0,1,32.88,396.23Z"/></g><g id="bottom-upper-dot"><path d="M32.88,325h0a7.3,7.3,0,0,1-7.3-7.3h0a7.3,7.3,0,0,1,7.3-7.3h0a7.3,7.3,0,0,1,7.31,7.3h0A7.3,7.3,0,0,1,32.88,325Z"/></g><g id="center-dot"><path d="M32.88,253.8h0a7.3,7.3,0,0,1-7.3-7.3h0a7.3,7.3,0,0,1,7.3-7.3h0a7.3,7.3,0,0,1,7.31,7.3h0A7.3,7.3,0,0,1,32.88,253.8Z"/></g><g id="top-lower-dot"><path d="M32.88,182.59h0a7.3,7.3,0,0,1-7.3-7.3h0a7.3,7.3,0,0,1,7.3-7.3h0a7.3,7.3,0,0,1,7.31,7.3h0A7.3,7.3,0,0,1,32.88,182.59Z"/></g><g id="top-upper-dot"><path d="M32.88,111.38h0a7.3,7.3,0,0,1-7.3-7.3h0a7.3,7.3,0,0,1,7.3-7.31h0a7.31,7.31,0,0,1,7.31,7.31h0A7.3,7.3,0,0,1,32.88,111.38Z"/></g><g id="top-square"><rect x="0.02" width="65.73" height="65.73"/></g></svg>